<svg width="13" height="14" viewBox="0 0 13 14" fill="none" xmlns="http://www.w3.org/2000/svg">
<path fill-rule="evenodd" clip-rule="evenodd" d="M0.436538 6.26273C0.478017 6.66985 0.905919 6.91689 1.27923 6.74926L5.17249 5.00099C5.61892 4.80052 5.65051 4.17871 5.22671 3.93403L3.83242 3.12903C5.64909 2.05045 8.03072 2.28918 9.59729 3.84523L9.60873 3.8569C11.4622 5.71032 11.4622 8.71531 9.60873 10.5687C7.75531 12.4222 4.75032 12.4222 2.8969 10.5687C2.58448 10.2563 2.07795 10.2563 1.76553 10.5687C1.45311 10.8811 1.45311 11.3877 1.76553 11.7001C4.24379 14.1784 8.26184 14.1784 10.7401 11.7001C13.2139 9.2263 13.2184 5.21824 10.7535 2.73892L10.7402 2.72539C8.43381 0.418964 4.79371 0.259046 2.30234 2.24564L0.900864 1.4365C0.477061 1.19182 -0.0456486 1.53008 0.00395368 2.01693L0.436538 6.26273Z" fill="#5E6E89"/>
</svg>
